# xmcd CD database file
#
# Track frame offsets:
#	150
#	13351
#	34128
#	45455
#	65782
#	77189
#	101565
#	111231
#	123836
#	135689
#	153464
#	155793
#
# Disc length: 2291 seconds
#
# Revision: 0
# Processed by: cddbd v1.4PL0 Copyright (c) Steve Scherf et al.
# Submitted via: CDex 1.51
#
DISCID=a608f10c
DTITLE=Elaine Silver - Faeries Dreams and Other Freinds
DYEAR=1998
DGENRE=New Age
TTITLE0=Elaine Silver - 1998 Faeries Dreams - 01 Half Moon Rising
TTITLE1=Elaine Silver - 1998 Faeries Dreams - 02 Puff The Magic Dragon
TTITLE2=Elaine Silver - 1998 Faeries Dreams - 03 Waterbound
TTITLE3=Elaine Silver - 1998 Faeries Dreams - 04 Faeries Are Gathering
TTITLE4=Elaine Silver - 1998 Faeries Dreams - 05 A Friend Is
TTITLE5=Elaine Silver - 1998 Faeries Dreams - 06 Kubiando, Green Blessings
TTITLE6=Elaine Silver - 1998 Faeries Dreams - 07 Flowers Flowers
TTITLE7=Elaine Silver - 1998 Faeries Dreams - 08 L.o.v.e.
TTITLE8=Elaine Silver - 1998 Faeries Dreams - 09 The Teddy Bears's Picnic
TTITLE9=Elaine Silver - 1998 Faeries Dreams - 10 Houseful Of Faeries
TTITLE10=Elaine Silver - 1998 Faeries Dreams - 11 Make New Friends
TTITLE11=Elaine Silver - 1998 Faeries Dreams - 12 The Blue And The Green
EXTD=YEAR: 1998
EXTT0=
EXTT1=
EXTT2=
EXTT3=
EXTT4=
EXTT5=
EXTT6=
EXTT7=
EXTT8=
EXTT9=
EXTT10=
EXTT11=
PLAYORDER=
